{
  "accessors": [
    {
      "bufferView": 2,
      "componentType": 5126,
      "count": 5092,
      "max": [
        0.2142084240913391,
        0.9679820537567139,
        2.5542399883270264
      ],
      "min": [
        -1.2845697402954102,
        -1.0469900369644165,
        -0.40447545051574707
      ],
      "type": "VEC3"
    },
    {
      "bufferView": 2,
      "byteOffset": 61104,
      "componentType": 5126,
      "count": 5092,
      "max": [
        0.9999065399169922,
        0.9996248483657837,
        0.9995237588882446
      ],
      "min": [
        -0.9999287128448486,
        -0.9997212886810303,
        -0.9995043277740479
      ],
      "type": "VEC3"
    },
    {
      "bufferView": 1,
      "componentType": 5126,
      "count": 5092,
      "max": [
        0.9914621710777283,
        0.999797523021698
      ],
      "min": [
        0.00020254474657122046,
        0.00020254474657122046
      ],
      "type": "VEC2"
    },
    {
      "bufferView": 0,
      "componentType": 5125,
      "count": 21432,
      "type": "SCALAR"
    },
    {
      "bufferView": 2,
      "byteOffset": 122208,
      "componentType": 5126,
      "count": 790,
      "max": [
        1.3445899486541748,
        0.7670550346374512,
        1.4392366409301758
      ],
      "min": [
        -0.8134381175041199,
        -0.8220694065093994,
        -0.166611909866333
      ],
      "type": "VEC3"
    },
    {
      "bufferView": 2,
      "byteOffset": 131688,
      "componentType": 5126,
      "count": 790,
      "max": [
        0.9940464496612549,
        0.9943499565124512,
        0.9968346357345581
      ],
      "min": [
        -0.992117702960968,
        -0.9963966608047485,
        -0.9982016682624817
      ],
      "type": "VEC3"
    },
    {
      "bufferView": 1,
      "byteOffset": 40736,
      "componentType": 5126,
      "count": 790,
      "max": [
        0.9997907280921936,
        0.981731116771698
      ],
      "min": [
        0.00020923736155964434,
        0.00020923736155964434
      ],
      "type": "VEC2"
    },
    {
      "bufferView": 0,
      "byteOffset": 85728,
      "componentType": 5125,
      "count": 3708,
      "type": "SCALAR"
    },
    {
      "bufferView": 2,
      "byteOffset": 141168,
      "componentType": 5126,
      "count": 2440,
      "max": [
        1.5771046876907349,
        0.43267199397087097,
        1.7439143657684326
      ],
      "min": [
        -1.2086448669433594,
        -1.7785320281982422,
        -2.064056158065796
      ],
      "type": "VEC3"
    },
    {
      "bufferView": 2,
      "byteOffset": 170448,
      "componentType": 5126,
      "count": 2440,
      "max": [
        0.9981330633163452,
        0.9989221692085266,
        0.9975744485855103
      ],
      "min": [
        -0.999392032623291,
        -0.99983811378479,
        -0.9996163845062256
      ],
      "type": "VEC3"
    },
    {
      "bufferView": 1,
      "byteOffset": 47056,
      "componentType": 5126,
      "count": 2440,
      "max": [
        0.8943974375724792,
        0.9998742938041687
      ],
      "min": [
        0.0010060037020593882,
        0.0001258126285392791
      ],
      "type": "VEC2"
    },
    {
      "bufferView": 0,
      "byteOffset": 100560,
      "componentType": 5125,
      "count": 10704,
      "type": "SCALAR"
    },
    {
      "bufferView": 2,
      "byteOffset": 199728,
      "componentType": 5126,
      "count": 1975,
      "max": [
        1.2521671056747437,
        0.302791953086853,
        2.9048221111297607
      ],
      "min": [
        -0.2566988170146942,
        -0.8183724284172058,
        0.23356196284294128
      ],
      "type": "VEC3"
    },
    {
      "bufferView": 2,
      "byteOffset": 223428,
      "componentType": 5126,
      "count": 1975,
      "max": [
        0.9996942281723022,
        0.9999728202819824,
        0.9998427629470825
      ],
      "min": [
        -0.9965832233428955,
        -0.9999654293060303,
        -0.998140275478363
      ],
      "type": "VEC3"
    },
    {
      "bufferView": 1,
      "byteOffset": 66576,
      "componentType": 5126,
      "count": 1975,
      "max": [
        0.9010362029075623,
        0.9998174905776978
      ],
      "min": [
        0.0008392126765102148,
        0.0001825445651775226
      ],
      "type": "VEC2"
    },
    {
      "bufferView": 0,
      "byteOffset": 143376,
      "componentType": 5125,
      "count": 8424,
      "type": "SCALAR"
    },
    {
      "bufferView": 2,
      "byteOffset": 247128,
      "componentType": 5126,
      "count": 1240,
      "max": [
        1.4384396076202393,
        -0.2308131456375122,
        1.117697834968567
      ],
      "min": [
        0.3066878020763397,
        -1.6162075996398926,
        0.09920098632574081
      ],
      "type": "VEC3"
    },
    {
      "bufferView": 2,
      "byteOffset": 262008,
      "componentType": 5126,
      "count": 1240,
      "max": [
        0.9945283532142639,
        0.990350067615509,
        0.9999101161956787
      ],
      "min": [
        -0.99949049949646,
        -0.9984573721885681,
        -0.9927896857261658
      ],
      "type": "VEC3"
    },
    {
      "bufferView": 1,
      "byteOffset": 82376,
      "componentType": 5126,
      "count": 1240,
      "max": [
        0.9985021948814392,
        0.6162114143371582
      ],
      "min": [
        0.00034777208929881454,
        0.0010653097415342927
      ],
      "type": "VEC2"
    },
    {
      "bufferView": 0,
      "byteOffset": 177072,
      "componentType": 5125,
      "count": 5976,
      "type": "SCALAR"
    }
  ],
  "asset": {
    "extras": {
      "author": "Pelilasdis (https://sketchfab.com/Pelilasdis)",
      "license": "SKETCHFAB Standard (https://sketchfab.com/licenses)",
      "source": "https://sketchfab.com/3d-models/human-heart-8ad7eb387e6e41e0abfe17eec5351f8b",
      "title": "Human Heart"
    },
    "generator": "Sketchfab-12.67.0",
    "version": "2.0"
  },
  "bufferViews": [
    {
      "buffer": 0,
      "byteLength": 200976,
      "name": "floatBufferViews",
      "target": 34963
    },
    {
      "buffer": 0,
      "byteLength": 92296,
      "byteOffset": 200976,
      "byteStride": 8,
      "name": "floatBufferViews",
      "target": 34962
    },
    {
      "buffer": 0,
      "byteLength": 276888,
      "byteOffset": 293272,
      "byteStride": 12,
      "name": "floatBufferViews",
      "target": 34962
    }
  ],
  "buffers": [
    {
      "byteLength": 570160,
      "uri": "scene.bin"
    }
  ],
  "extensionsRequired": [
    "KHR_materials_pbrSpecularGlossiness"
  ],
  "extensionsUsed": [
    "KHR_materials_pbrSpecularGlossiness"
  ],
  "images": [
    {
      "uri": "textures/heart1_specularGlossiness.png"
    }
  ],
  "materials": [
    {
      "doubleSided": true,
      "extensions": {
        "KHR_materials_pbrSpecularGlossiness": {
          "diffuseFactor": [
            0.6912592433859023,
            0.06812398106835839,
            0.06812398106835839,
            1.0
          ],
          "glossinessFactor": 0.9956173780487805,
          "specularFactor": [
            0.19683689024390244,
            0.19683689024390244,
            0.19683689024390244
          ]
        }
      },
      "name": "heart2"
    },
    {
      "doubleSided": true,
      "extensions": {
        "KHR_materials_pbrSpecularGlossiness": {
          "diffuseFactor": [
            0.6592412686351545,
            0.1525616973503043,
            0.19662571498640996,
            1.0
          ],
          "glossinessFactor": 1.0,
          "specularFactor": [
            0.050495426829268296,
            0.050495426829268296,
            0.050495426829268296
          ]
        }
      },
      "name": "heart5"
    },
    {
      "doubleSided": true,
      "extensions": {
        "KHR_materials_pbrSpecularGlossiness": {
          "diffuseFactor": [
            0.3351449937597989,
            0.02880389749662265,
            0.057193661723968815,
            1.0
          ],
          "glossinessFactor": 1.0,
          "specularFactor": [
            0.1053734756097561,
            0.1053734756097561,
            0.1053734756097561
          ],
          "specularGlossinessTexture": {
            "index": 0
          }
        }
      },
      "name": "heart1"
    },
    {
      "doubleSided": true,
      "extensions": {
        "KHR_materials_pbrSpecularGlossiness": {
          "diffuseFactor": [
            0.7241664348743744,
            0.11178330439105834,
            0.15843147233307175,
            1.0
          ],
          "glossinessFactor": 1.0,
          "specularFactor": [
            0.18464176829268292,
            0.18464176829268292,
            0.18464176829268292
          ]
        }
      },
      "name": "heart3"
    },
    {
      "doubleSided": true,
      "extensions": {
        "KHR_materials_pbrSpecularGlossiness": {
          "diffuseFactor": [
            0.7076012526892669,
            0.038480894237673376,
            0.038480894237673376,
            1.0
          ],
          "glossinessFactor": 1.0,
          "specularFactor": [
            0.020007621951219513,
            0.020007621951219513,
            0.020007621951219513
          ]
        }
      },
      "name": "heart4"
    }
  ],
  "meshes": [
    {
      "name": "Plane.003_heart2_0",
      "primitives": [
        {
          "attributes": {
            "NORMAL": 1,
            "POSITION": 0,
            "TEXCOORD_0": 2
          },
          "indices": 3,
          "material": 0,
          "mode": 4
        }
      ]
    },
    {
      "name": "Cylinder_heart5_0",
      "primitives": [
        {
          "attributes": {
            "NORMAL": 5,
            "POSITION": 4,
            "TEXCOORD_0": 6
          },
          "indices": 7,
          "material": 1,
          "mode": 4
        }
      ]
    },
    {
      "name": "Plane.004_heart1_0",
      "primitives": [
        {
          "attributes": {
            "NORMAL": 9,
            "POSITION": 8,
            "TEXCOORD_0": 10
          },
          "indices": 11,
          "material": 2,
          "mode": 4
        }
      ]
    },
    {
      "name": "Plane.005_heart3_0",
      "primitives": [
        {
          "attributes": {
            "NORMAL": 13,
            "POSITION": 12,
            "TEXCOORD_0": 14
          },
          "indices": 15,
          "material": 3,
          "mode": 4
        }
      ]
    },
    {
      "name": "Cylinder.003_heart4_0",
      "primitives": [
        {
          "attributes": {
            "NORMAL": 17,
            "POSITION": 16,
            "TEXCOORD_0": 18
          },
          "indices": 19,
          "material": 4,
          "mode": 4
        }
      ]
    }
  ],
  "nodes": [
    {
      "children": [
        1
      ],
      "matrix": [
        1.0,
        0.0,
        0.0,
        0.0,
        0.0,
        2.220446049250313e-16,
        -1.0,
        0.0,
        0.0,
        1.0,
        2.220446049250313e-16,
        0.0,
        0.0,
        0.0,
        0.0,
        1.0
      ],
      "name": "Sketchfab_model"
    },
    {
      "children": [
        2
      ],
      "matrix": [
        1.0,
        0.0,
        0.0,
        0.0,
        0.0,
        0.0,
        1.0,
        0.0,
        0.0,
        -1.0,
        0.0,
        0.0,
        0.0,
        0.0,
        0.0,
        1.0
      ],
      "name": "3c400de220e24f6fa9d11a8e4fb181ab.fbx"
    },
    {
      "children": [
        3,
        5,
        7,
        9,
        11
      ],
      "name": "RootNode"
    },
    {
      "children": [
        4
      ],
      "matrix": [
        45.21841812133789,
        0.0,
        0.0,
        0.0,
        -0.0,
        -19.58971903233469,
        -40.75474126538757,
        0.0,
        0.0,
        40.75474126538757,
        -19.58971903233469,
        0.0,
        -34.287391662597656,
        295.3265075683594,
        -43.48106384277344,
        1.0
      ],
      "name": "Plane.003"
    },
    {
      "mesh": 0,
      "name": "Plane.003_heart2_0"
    },
    {
      "children": [
        6
      ],
      "matrix": [
        45.21841812133789,
        0.0,
        0.0,
        0.0,
        -0.0,
        -19.58971903233469,
        -40.75474126538757,
        0.0,
        0.0,
        40.75474126538757,
        -19.58971903233469,
        0.0,
        -27.950889587402344,
        298.4622802734375,
        -39.95940399169922,
        1.0
      ],
      "name": "Cylinder"
    },
    {
      "mesh": 1,
      "name": "Cylinder_heart5_0"
    },
    {
      "children": [
        8
      ],
      "matrix": [
        45.21841812133789,
        0.0,
        0.0,
        0.0,
        -0.0,
        -19.58971903233469,
        -40.75474126538757,
        0.0,
        0.0,
        40.75474126538757,
        -19.58971903233469,
        0.0,
        -34.287391662597656,
        295.3265075683594,
        -43.48106384277344,
        1.0
      ],
      "name": "Plane.004"
    },
    {
      "mesh": 2,
      "name": "Plane.004_heart1_0"
    },
    {
      "children": [
        10
      ],
      "matrix": [
        45.21841812133789,
        0.0,
        0.0,
        0.0,
        -0.0,
        -19.58971903233469,
        -40.75474126538757,
        0.0,
        0.0,
        40.75474126538757,
        -19.58971903233469,
        0.0,
        -34.287391662597656,
        295.3265075683594,
        -43.48106384277344,
        1.0
      ],
      "name": "Plane.005"
    },
    {
      "mesh": 3,
      "name": "Plane.005_heart3_0"
    },
    {
      "children": [
        12
      ],
      "matrix": [
        45.21841812133789,
        0.0,
        0.0,
        0.0,
        -0.0,
        -19.58971903233469,
        -40.75474126538757,
        0.0,
        0.0,
        40.75474126538757,
        -19.58971903233469,
        0.0,
        -34.287391662597656,
        295.3265075683594,
        -43.48106384277344,
        1.0
      ],
      "name": "Cylinder.003"
    },
    {
      "mesh": 4,
      "name": "Cylinder.003_heart4_0"
    }
  ],
  "samplers": [
    {
      "magFilter": 9729,
      "minFilter": 9987,
      "wrapS": 10497,
      "wrapT": 10497
    }
  ],
  "scene": 0,
  "scenes": [
    {
      "name": "Sketchfab_Scene",
      "nodes": [
        0
      ]
    }
  ],
  "textures": [
    {
      "sampler": 0,
      "source": 0
    }
  ]
}
